<?xml version="1.0" encoding="iso-8859-1"?>
<!-- Generator: Adobe Illustrator 19.0.0, SVG Export Plug-In . SVG Version: 6.00 Build 0)  -->
<svg version="1.1" id="Layer_1" xmlns="http://www.w3.org/2000/svg" xmlns:xlink="http://www.w3.org/1999/xlink" x="0px" y="0px"
	 viewBox="0 0 490 490" style="enable-background:new 0 0 490 490;" xml:space="preserve">
<g>
	<g>
		<g>
			<path d="M420,0H70C58.972,0,50,8.972,50,20v450c0,11.028,8.972,20,20,20h350c11.028,0,20-8.972,20-20V20
				C440,8.972,431.028,0,420,0z M70,20h350v80H70V20z M70,470V120h350l0.001,350H70z"/>
			<path d="M275,170h-60c-5.523,0-10,4.477-10,10v60c0,5.523,4.477,10,10,10h60c5.523,0,10-4.477,10-10v-60
				C285,174.477,280.523,170,275,170z M265,230h-40v-40h40V230z"/>
			<path d="M385,170h-60c-5.523,0-10,4.477-10,10v60c0,5.523,4.477,10,10,10h60c5.523,0,10-4.477,10-10v-60
				C395,174.477,390.523,170,385,170z M375,230h-40v-40h40V230z"/>
			<path d="M165,170h-60c-5.523,0-10,4.477-10,10v60c0,5.523,4.477,10,10,10h60c5.523,0,10-4.477,10-10v-60
				C175,174.477,170.523,170,165,170z M155,230h-40v-40h40V230z"/>
			<path d="M275,270h-60c-5.523,0-10,4.478-10,10v60c0,5.522,4.477,10,10,10h60c5.523,0,10-4.478,10-10v-60
				C285,274.478,280.523,270,275,270z M265,330h-40v-40h40V330z"/>
			<path d="M385,270h-60c-5.523,0-10,4.478-10,10v60c0,5.522,4.477,10,10,10h60c5.523,0,10-4.478,10-10v-60
				C395,274.478,390.523,270,385,270z M375,330h-40v-40h40V330z"/>
			<path d="M165,270h-60c-5.523,0-10,4.478-10,10v60c0,5.522,4.477,10,10,10h60c5.523,0,10-4.478,10-10v-60
				C175,274.478,170.523,270,165,270z M155,330h-40v-40h40V330z"/>
			<path d="M275,370h-60c-5.523,0-10,4.478-10,10v60c0,5.522,4.477,10,10,10h60c5.523,0,10-4.478,10-10v-60
				C285,374.478,280.523,370,275,370z M265,430h-40v-40h40V430z"/>
			<path d="M385,370h-60c-5.523,0-10,4.478-10,10v60c0,5.522,4.477,10,10,10h60c5.523,0,10-4.478,10-10v-60
				C395,374.478,390.523,370,385,370z M375,430h-40v-40h40V430z"/>
			<path d="M165,370h-60c-5.523,0-10,4.478-10,10v60c0,5.522,4.477,10,10,10h60c5.523,0,10-4.478,10-10v-60
				C175,374.478,170.523,370,165,370z M155,430h-40v-40h40V430z"/>
			<rect x="95" y="135" width="50" height="20"/>
			<rect x="160" y="135" width="50" height="20"/>
			<rect x="225" y="135" width="25" height="20"/>
			<rect x="265" y="135" width="25" height="20"/>
			<rect x="365" y="135" width="25" height="20"/>
			<path d="M80,40v25h20V50h15V30H90C84.477,30,80,34.478,80,40z"/>
		</g>
	</g>
</g>
<g>
</g>
<g>
</g>
<g>
</g>
<g>
</g>
<g>
</g>
<g>
</g>
<g>
</g>
<g>
</g>
<g>
</g>
<g>
</g>
<g>
</g>
<g>
</g>
<g>
</g>
<g>
</g>
<g>
</g>
</svg>
